<svg width="163" height="35" viewBox="0 0 163 35" fill="none" xmlns="http://www.w3.org/2000/svg">
<path d="M75.1173 19.9167C76.0406 21.1038 76.5022 22.4887 76.5022 24.1375C76.5022 26.5117 75.7108 28.3583 74.128 29.6114C72.5452 30.8644 70.3029 31.5239 67.4011 31.5239H53.9473V4.2865H67.1373C69.9072 4.2865 72.0176 4.88006 73.6004 6.06716C75.1832 7.25426 75.9087 9.03491 75.9087 11.2772C75.9087 12.926 75.513 14.245 74.6556 15.3661C73.7983 16.4873 72.6771 17.1468 71.2922 17.4765C72.9409 17.8722 74.194 18.7296 75.1173 19.9167ZM61.5975 15.1683H65.4226C67.3352 15.1683 68.2584 14.3769 68.2584 12.7941C68.2584 11.1453 67.2692 10.3539 65.3566 10.3539H61.5975V15.1683ZM68.786 22.9504C68.786 21.2357 67.7968 20.3783 65.8183 20.3783H61.5315V25.3905H65.8183C67.7968 25.4565 68.786 24.5991 68.786 22.9504Z" fill="white"/>
<path d="M87.1214 4.2865V19.8507C87.1214 21.3676 87.4511 22.5547 88.1106 23.412C88.7701 24.2694 89.8253 24.6651 91.2103 24.6651C92.5952 24.6651 93.6504 24.2694 94.3759 23.412C95.1013 22.5547 95.4311 21.3676 95.4311 19.8507V4.2865H102.949V19.8507C102.949 22.4228 102.422 24.5991 101.367 26.3798C100.311 28.1604 98.9264 29.5454 97.1458 30.4687C95.3651 31.392 93.3207 31.8537 91.0784 31.8537C88.8361 31.8537 86.8576 31.392 85.0769 30.5347C83.3622 29.6114 81.9773 28.2924 80.988 26.5117C79.9987 24.731 79.5371 22.5547 79.5371 19.9167V4.35245H87.1214V4.2865Z" fill="white"/>
<path d="M114.555 4.2865V31.5239H106.971V4.2865H114.555Z" fill="white"/>
<path d="M126.362 25.7862H134.869V31.5239H118.777V4.2865H126.362V25.7862Z" fill="white"/>
<path d="M160.984 24.8638C159.797 26.9083 158.214 28.557 156.038 29.7441C153.927 30.9312 151.421 31.5248 148.519 31.5248H137.638V4.28735H148.519C151.421 4.28735 153.927 4.88091 156.038 6.00206C158.148 7.12321 159.797 8.77198 160.984 10.8164C162.105 12.8609 162.699 15.2351 162.699 17.8731C162.699 20.4451 162.105 22.8193 160.984 24.8638ZM153.136 22.9513C154.389 21.7641 155.049 20.0494 155.049 17.8071C155.049 15.6308 154.389 13.9161 153.136 12.729C151.883 11.5419 150.102 10.8824 147.86 10.8824H145.288V24.7319H147.86C150.102 24.7319 151.817 24.1384 153.136 22.9513Z" fill="white"/>
<path d="M24.914 25.3163H21.8953V28.335H24.914V25.3163Z" fill="#FEAB02"/>
<path d="M28.8857 25.3163H25.867V28.335H28.8857V25.3163Z" fill="#FEAB02"/>
<path d="M24.914 29.288H21.8953V32.3067H24.914V29.288Z" fill="#FEAB02"/>
<path d="M28.8857 29.288H25.867V32.3067H28.8857V29.288Z" fill="#FEAB02"/>
<path d="M46.5342 25.3869V8.52714H37.9128V16.9306L25.3823 4.61609L-6.10352e-05 28.8752L5.99745 34.9531L25.2752 16.5078L44.071 34.9531L50.122 28.8752L46.5342 25.3869Z" fill="#FEAB02"/>
<path d="M46.3087 0H37.7822V6.67296H46.3087V0Z" fill="#FEAB02"/>
</svg>
