<svg width="207" height="86" viewBox="0 0 207 86" fill="none" xmlns="http://www.w3.org/2000/svg">
<path d="M32.6414 19.2609L37.3667 22.8271V18.0721L52.6295 11.7672V0L65.8391 9.31443V28.5903L74.4291 26.6944L84.1665 33.6463L84.2118 71.3856L93.7076 73.1913C75.0934 74.8917 64.2539 71.6263 56.6603 66.2694C45.6548 59.9645 38.4084 53.8552 32.6263 52.0946C26.014 49.672 18.9185 50.2588 11.5815 52.3354C18.0882 48.8293 25.0025 46.9634 32.3697 46.4668L32.6414 19.2609Z" fill="url(#paint0_linear_2171_206)"/>
<path d="M52.4462 11.5669V21.2275L37.4686 26.2185L37.4091 17.9818L52.4462 11.5669Z" fill="#145AAC"/>
<path d="M52.4462 0V10.6828L37.4686 16.965L37.4091 7.76931L52.4462 0Z" fill="#145AAC"/>
<path d="M52.8318 22.3581V31.7837L37.4698 35.4674L37.4091 27.4288L52.8318 22.3581Z" fill="#145AAC"/>
<path d="M52.8318 33.1573V42.0731L37.4695 44.3388L37.4091 36.8649L52.8318 33.1573Z" fill="#145AAC"/>
<path d="M52.8321 43.1835V51.9546L37.4698 52.8227L37.4093 45.5185L52.8321 43.1835Z" fill="#145AAC"/>
<path d="M52.8383 52.8291V64.0106L47.5638 60.6208L41.8813 56.8323L37.03 53.8414L52.8383 52.8291Z" fill="#145AAC"/>
<path d="M74.4257 26.6123L60.5453 29.6801V40.8783L74.4257 38.7323V26.6123Z" fill="#145AAC"/>
<path d="M74.4257 39.7169L60.5453 41.8724V51.284L74.4257 50.6768V39.7169Z" fill="#145AAC"/>
<path d="M74.4257 51.2805L60.5453 52.2289V60.9198H74.4257V51.2805Z" fill="#145AAC"/>
<path d="M74.4257 61.6923L60.5453 61.7674V68.5963C65.167 70.8326 69.804 72.3485 74.4257 72.8738V61.6923Z" fill="#145AAC"/>
<path d="M32.3269 46.2676C25.1556 46.7422 18.2255 48.7036 11.5815 52.4367C18.9185 50.2222 25.9391 49.6685 32.4022 52.1045L32.3269 46.2676Z" fill="#145AAC"/>
<path d="M32.401 37.7848L21.2195 40.6097V47.0384L32.3421 45.2671L32.401 37.7848Z" fill="#145AAC"/>
<path d="M32.401 28.9312L21.2195 32.8099V39.3416L32.3421 36.8437L32.401 28.9312Z" fill="#145AAC"/>
<path d="M32.401 18.901L21.2195 24.0365V31.6248L32.3421 27.7923L32.401 18.901Z" fill="#145AAC"/>
<path d="M94.0831 77.1292C74.8498 78.4471 67.4454 77.3261 54.2168 69.2826C41.2441 60.7241 30.4686 48.7573 8.8725 57.2855C20.0844 57.4521 29.5506 62.6933 37.557 72.0395C39.1974 73.9482 41.0033 75.7205 43.02 77.2353C58.9424 89.2627 82.7659 88.5356 94.0831 77.1292Z" fill="#7CAFFF"/>
<path d="M0.0146179 60.8437C24.4202 56.4582 30.815 73.8051 43.1983 82.4559C33.3277 83.1018 24.8565 77.6349 17.0624 70.8914C12.3679 66.6861 6.6652 63.3519 0.0146179 60.8437Z" fill="#4270FF"/>
<path d="M120.027 45.9425H117.438L110.488 34.8015V45.9185H108.139V30.8751H110.681L117.679 42.0402V30.8992H120.027V45.9425Z" fill="white"/>
<path d="M132.754 45.9168H124.13V30.8975H132.73V33.1016H126.491V37.0763H132.368V39.2804H126.491V43.797H132.766V45.9168H132.754Z" fill="white"/>
<path d="M152.443 30.8954L148.516 45.9147H146.023L143.241 35.123L140.434 45.9147H137.977L134.051 30.8954H136.424L139.206 41.8438L142.012 30.8954H144.469L147.276 41.8558L150.082 30.8954H152.443Z" fill="white"/>
<path d="M170.759 40.8668H173.3C173.144 41.5413 172.903 42.2037 172.577 42.8661C172.252 43.5165 171.831 44.1067 171.313 44.6246C170.783 45.1425 170.132 45.5641 169.386 45.8772C168.627 46.1904 167.76 46.347 166.76 46.347C165.664 46.347 164.688 46.1543 163.821 45.7809C162.954 45.4075 162.219 44.8776 161.617 44.179C161.027 43.4925 160.569 42.6494 160.256 41.6738C159.943 40.6982 159.786 39.6021 159.786 38.3977C159.786 37.2174 159.943 36.1454 160.256 35.1819C160.569 34.2183 161.027 33.3873 161.617 32.7007C162.219 32.0262 162.954 31.4963 163.821 31.1229C164.688 30.7495 165.664 30.5568 166.76 30.5568C167.772 30.5568 168.651 30.7134 169.41 31.0386C170.169 31.3638 170.807 31.7733 171.337 32.2551C171.867 32.7609 172.288 33.3029 172.614 33.8931C172.927 34.4833 173.156 35.0494 173.288 35.5793H170.747C170.614 35.23 170.446 34.8928 170.253 34.5555C170.048 34.2183 169.795 33.9172 169.47 33.6643C169.169 33.3873 168.796 33.1705 168.35 33.0018C167.904 32.8332 167.374 32.7489 166.772 32.7489C165.375 32.7489 164.291 33.2548 163.496 34.2785C162.713 35.3023 162.316 36.6633 162.316 38.3856C162.316 40.1562 162.713 41.5654 163.496 42.6012C164.279 43.649 165.375 44.1669 166.772 44.1669C167.35 44.1669 167.868 44.0826 168.314 43.902C168.771 43.7213 169.157 43.4684 169.47 43.1552C169.795 42.8541 170.072 42.5048 170.277 42.0953C170.482 41.7099 170.65 41.3004 170.759 40.8668Z" fill="white"/>
<path d="M177.018 45.9147H174.705V30.8954H177.018V45.9147Z" fill="white"/>
<path d="M191.244 33.0996H186.39V45.9268H183.993V33.0996H179.163V30.8954H191.256V33.0996H191.244Z" fill="white"/>
<path d="M206.435 30.8751L200.798 39.7518V45.9305H198.401V39.7999L192.74 30.8871H195.523L199.582 37.2706L203.616 30.8871H206.435V30.8751Z" fill="white"/>
<path d="M133.422 64.3368H131.236L126.768 59.3223L125.354 60.5759V64.3368H123.586V53.022H125.354V58.2615C125.707 57.9401 126.109 57.5865 126.527 57.1686C126.945 56.7507 127.379 56.3168 127.829 55.8668C128.263 55.4168 128.696 54.9346 129.13 54.4524C129.564 53.9703 129.966 53.4881 130.352 53.006H132.554C131.734 54.0346 130.947 54.9828 130.191 55.8507C129.436 56.7186 128.729 57.4579 128.07 58.1008L133.422 64.3368Z" fill="white"/>
<path d="M143.6 64.3206H141.848V59.2258H136.56V64.3206H134.792V53.0059H136.56V57.5543H141.848V53.0059H143.6V64.3206Z" fill="white"/>
<path d="M156.49 64.3206H154.674L153.533 61.6366H148.325L147.168 64.3206H145.352L149.916 53.0059H151.893L156.49 64.3206ZM152.874 59.949L150.929 55.1434L148.968 59.949H152.874Z" fill="white"/>
<path d="M167.288 64.3581H165.07L161.887 59.7775H159.75V64.3259H157.982V52.9951H162.643C163.189 52.9951 163.72 53.0754 164.202 53.2362C164.684 53.3969 165.102 53.6219 165.439 53.9273C165.793 54.2166 166.082 54.5702 166.275 54.988C166.468 55.4059 166.58 55.872 166.58 56.3863C166.58 57.1417 166.339 57.8006 165.857 58.3632C165.375 58.9257 164.764 59.3436 164.009 59.5686L167.288 64.3581ZM162.627 58.106C162.868 58.106 163.109 58.0739 163.35 58.0096C163.591 57.9453 163.816 57.8328 164.009 57.6881C164.202 57.5435 164.362 57.3667 164.491 57.1578C164.62 56.9488 164.684 56.6917 164.684 56.3863C164.684 55.8077 164.491 55.3738 164.089 55.1005C163.687 54.8273 163.237 54.6827 162.755 54.6827H159.766V58.1221H162.627V58.106Z" fill="white"/>
<path d="M170.575 64.3206H168.839V53.0059H170.575V64.3206Z" fill="white"/>
<path d="M183.475 64.3206H181.659L180.518 61.6366H175.31L174.153 64.3206H172.337L176.902 53.0059H178.878L183.475 64.3206ZM179.859 59.949L177.914 55.1434L175.953 59.949H179.859Z" fill="white"/>
<path d="M193.935 64.342H191.99L186.735 55.9524V64.3259H184.967V52.9951H186.88L192.151 61.4008V53.0112H193.919V64.342H193.935Z" fill="white"/>
<defs>
<linearGradient id="paint0_linear_2171_206" x1="52.6446" y1="73.6433" x2="52.6446" y2="-0.000276538" gradientUnits="userSpaceOnUse">
<stop stop-color="#5558FF"/>
<stop offset="1" stop-color="#00C0FF"/>
</linearGradient>
</defs>
</svg>
