<svg width="204" height="105" viewBox="0 0 204 105" fill="none" xmlns="http://www.w3.org/2000/svg">
<path d="M151.251 39.9102H145.716C145.558 39.0025 145.267 38.1985 144.843 37.498C144.419 36.7876 143.891 36.1858 143.259 35.6925C142.628 35.1992 141.908 34.8292 141.099 34.5826C140.3 34.3261 139.436 34.1978 138.509 34.1978C136.861 34.1978 135.401 34.6122 134.128 35.4409C132.856 36.2598 131.859 37.4634 131.139 39.0519C130.419 40.6304 130.059 42.5592 130.059 44.8383C130.059 47.1568 130.419 49.1102 131.139 50.6987C131.869 52.2772 132.866 53.471 134.128 54.28C135.401 55.0792 136.856 55.4787 138.494 55.4787C139.402 55.4787 140.25 55.3603 141.04 55.1236C141.839 54.8769 142.554 54.5168 143.185 54.0432C143.827 53.5697 144.364 52.9876 144.799 52.297C145.242 51.6063 145.548 50.8171 145.716 49.9291L151.251 49.9587C151.044 51.3992 150.595 52.7508 149.904 54.0136C149.223 55.2765 148.331 56.3913 147.226 57.3582C146.121 58.3152 144.828 59.065 143.348 59.6077C141.868 60.1404 140.226 60.4068 138.42 60.4068C135.756 60.4068 133.379 59.7902 131.287 58.5569C129.195 57.3237 127.548 55.5429 126.344 53.2145C125.141 50.8861 124.539 48.094 124.539 44.8383C124.539 41.5726 125.145 38.7805 126.359 36.462C127.572 34.1337 129.225 32.3529 131.317 31.1196C133.408 29.8864 135.776 29.2697 138.42 29.2697C140.107 29.2697 141.676 29.5065 143.126 29.9801C144.577 30.4537 145.869 31.1492 147.004 32.0667C148.138 32.9744 149.07 34.0893 149.801 35.4113C150.541 36.7235 151.024 38.2231 151.251 39.9102ZM161.769 29.6841V59.9924H156.279V29.6841H161.769ZM166.383 34.2866V29.6841H190.564V34.2866H181.197V59.9924H175.751V34.2866H166.383ZM200.716 29.6841V59.9924H195.226V29.6841H200.716ZM130.563 77.9924V66.9712H132.56V71.6369H137.667V66.9712H139.668V77.9924H137.667V73.3106H132.56V77.9924H130.563ZM151.688 72.4818C151.688 73.6693 151.466 74.6864 151.021 75.5331C150.579 76.3762 149.977 77.022 149.212 77.4704C148.452 77.9189 147.589 78.1431 146.624 78.1431C145.659 78.1431 144.794 77.9189 144.03 77.4704C143.27 77.0184 142.667 76.3708 142.222 75.5277C141.781 74.681 141.56 73.6657 141.56 72.4818C141.56 71.2943 141.781 70.279 142.222 69.4359C142.667 68.5892 143.27 67.9417 144.03 67.4932C144.794 67.0448 145.659 66.8205 146.624 66.8205C147.589 66.8205 148.452 67.0448 149.212 67.4932C149.977 67.9417 150.579 68.5892 151.021 69.4359C151.466 70.279 151.688 71.2943 151.688 72.4818ZM149.681 72.4818C149.681 71.6459 149.55 70.9409 149.288 70.3669C149.03 69.7893 148.671 69.3534 148.212 69.0592C147.752 68.7615 147.223 68.6126 146.624 68.6126C146.025 68.6126 145.496 68.7615 145.036 69.0592C144.577 69.3534 144.217 69.7893 143.955 70.3669C143.697 70.9409 143.567 71.6459 143.567 72.4818C143.567 73.3177 143.697 74.0245 143.955 74.6021C144.217 75.1761 144.577 75.612 145.036 75.9098C145.496 76.204 146.025 76.3511 146.624 76.3511C147.223 76.3511 147.752 76.204 148.212 75.9098C148.671 75.612 149.03 75.1761 149.288 74.6021C149.55 74.0245 149.681 73.3177 149.681 72.4818ZM160.523 66.9712H162.519V74.1716C162.519 74.9609 162.333 75.6551 161.96 76.2542C161.59 76.8534 161.07 77.3215 160.399 77.6588C159.728 77.9924 158.944 78.1593 158.047 78.1593C157.147 78.1593 156.361 77.9924 155.69 77.6588C155.02 77.3215 154.499 76.8534 154.13 76.2542C153.76 75.6551 153.576 74.9609 153.576 74.1716V66.9712H155.572V74.0048C155.572 74.464 155.672 74.873 155.873 75.2317C156.078 75.5905 156.365 75.8721 156.734 76.0766C157.104 76.2775 157.542 76.378 158.047 76.378C158.553 76.378 158.991 76.2775 159.361 76.0766C159.734 75.8721 160.021 75.5905 160.222 75.2317C160.423 74.873 160.523 74.464 160.523 74.0048V66.9712ZM170.679 70.001C170.629 69.531 170.417 69.1651 170.044 68.9032C169.675 68.6413 169.194 68.5103 168.602 68.5103C168.186 68.5103 167.829 68.5731 167.531 68.6987C167.233 68.8242 167.005 68.9946 166.848 69.2099C166.69 69.4252 166.609 69.6709 166.605 69.9472C166.605 70.1768 166.657 70.3759 166.761 70.5445C166.869 70.7131 167.014 70.8566 167.197 70.975C167.38 71.0898 167.583 71.1867 167.805 71.2656C168.028 71.3445 168.252 71.4109 168.478 71.4647L169.511 71.723C169.927 71.8199 170.328 71.9509 170.711 72.1159C171.099 72.2809 171.445 72.489 171.75 72.7401C172.059 72.9913 172.303 73.2944 172.482 73.6496C172.661 74.0048 172.751 74.4209 172.751 74.8981C172.751 75.5439 172.586 76.1125 172.256 76.604C171.926 77.0919 171.449 77.474 170.824 77.7503C170.204 78.0229 169.452 78.1593 168.57 78.1593C167.712 78.1593 166.968 78.0265 166.336 77.761C165.708 77.4955 165.217 77.1081 164.862 76.5986C164.51 76.0892 164.32 75.4685 164.291 74.7367H166.256C166.284 75.1205 166.403 75.4398 166.611 75.6946C166.819 75.9493 167.09 76.1394 167.423 76.265C167.761 76.3906 168.137 76.4533 168.553 76.4533C168.988 76.4533 169.368 76.3888 169.694 76.2596C170.024 76.1269 170.283 75.9439 170.469 75.7107C170.656 75.4739 170.751 75.1977 170.754 74.882C170.751 74.5949 170.667 74.3582 170.502 74.1716C170.336 73.9815 170.105 73.8236 169.807 73.698C169.513 73.5689 169.169 73.4541 168.774 73.3536L167.52 73.0307C166.613 72.7975 165.895 72.4442 165.368 71.9706C164.844 71.4934 164.582 70.8602 164.582 70.0709C164.582 69.4216 164.758 68.8529 165.109 68.365C165.464 67.8771 165.947 67.4986 166.557 67.2295C167.167 66.9569 167.857 66.8205 168.629 66.8205C169.411 66.8205 170.096 66.9569 170.684 67.2295C171.276 67.4986 171.741 67.8735 172.078 68.3543C172.416 68.8314 172.59 69.3803 172.6 70.001H170.679ZM176.527 66.9712V77.9924H174.531V66.9712H176.527ZM187.746 66.9712V77.9924H185.97L180.777 70.4853H180.686V77.9924H178.689V66.9712H180.476L185.664 74.4837H185.761V66.9712H187.746ZM197.305 70.4907C197.215 70.2001 197.092 69.94 196.934 69.7104C196.78 69.4772 196.593 69.2781 196.374 69.113C196.159 68.948 195.911 68.8242 195.632 68.7417C195.352 68.6556 195.047 68.6126 194.717 68.6126C194.125 68.6126 193.597 68.7615 193.135 69.0592C192.672 69.357 192.308 69.7947 192.042 70.3723C191.78 70.9463 191.649 71.6459 191.649 72.4711C191.649 73.3034 191.78 74.0084 192.042 74.586C192.304 75.1636 192.668 75.6031 193.135 75.9044C193.601 76.2022 194.143 76.3511 194.76 76.3511C195.319 76.3511 195.804 76.2435 196.213 76.0282C196.625 75.8129 196.943 75.508 197.165 75.1134C197.388 74.7151 197.499 74.2487 197.499 73.7142L197.951 73.7841H194.959V72.2235H199.431V73.5474C199.431 74.4909 199.23 75.3071 198.828 75.9959C198.426 76.6847 197.874 77.2157 197.171 77.5888C196.467 77.9583 195.66 78.1431 194.749 78.1431C193.734 78.1431 192.842 77.9153 192.074 77.4597C191.31 77.0005 190.713 76.3493 190.282 75.5062C189.855 74.6595 189.642 73.655 189.642 72.4926C189.642 71.6029 189.768 70.8082 190.019 70.1086C190.273 69.409 190.629 68.8153 191.084 68.3273C191.54 67.8358 192.074 67.4627 192.688 67.208C193.301 66.9497 193.969 66.8205 194.69 66.8205C195.3 66.8205 195.868 66.9102 196.396 67.0896C196.923 67.2654 197.391 67.5165 197.8 67.843C198.213 68.1695 198.552 68.557 198.817 69.0054C199.083 69.4539 199.257 69.949 199.339 70.4907H197.305Z" fill="white"/>
<path d="M104.415 54.036C103.809 78.9492 84.5176 100.46 59.9464 103.852C31.5947 107.767 6.14701 89.8576 0.912044 61.5441C-4.80229 30.638 17.1088 4.1083 44.9999 0.50833C58.7202 -1.26258 71.4827 1.5369 82.7835 9.79838C94.0803 18.0569 101.109 29.1039 103.614 42.8763C104.263 46.4488 104.17 50.1565 104.415 54.036ZM99.1813 43.2653C99.1276 42.8708 99.103 42.4698 99.0159 42.0828C93.5242 17.6957 71.1627 1.85022 46.3686 4.77162C19.3583 7.95415 0.080036 33.9752 5.11009 60.4608C10.0124 86.274 33.0412 102.923 59.1144 99.5038C85.5784 96.0334 104.387 69.8807 99.1813 43.2653Z" fill="#F1AF29"/>
<path d="M16.5545 59.5821C14.0742 43.6674 19.1117 31.026 32.1438 21.7666C36.8389 18.4307 42.1903 16.5151 47.888 15.9922C58.2506 15.0412 67.6972 17.5346 75.6305 24.5329C83.8184 31.7559 88.1596 40.8331 88.2143 51.8319C88.308 70.6555 74.4598 86.5246 56.3042 88.4319C37.427 90.4151 20.8581 78.4564 16.5545 59.5821ZM73.7871 27.5199C67.9696 22.3864 61.1629 19.5107 53.4375 19.2464C32.5579 18.5321 16.5886 36.6439 19.7166 57.323C22.5461 76.0286 40.9697 88.7216 59.1478 84.345C71.7383 81.3137 80.1389 73.4327 83.5583 61.0257C87.084 48.233 83.6489 37.002 73.7871 27.5199Z" fill="#F1AF29"/>
<path d="M25.9202 36.5515C28.8875 30.4635 33.9392 26.6762 39.8917 23.8756C43.6962 22.0857 47.7386 22.097 51.8418 21.7439C57.4728 21.2594 62.3403 22.7738 67.0579 25.3178C71.9951 27.9802 75.8468 31.8292 78.581 37.0979C78.5845 37.5481 78.5765 37.6664 78.5684 37.7847C61.1873 37.8048 43.8061 37.8249 26.2004 37.6047C25.9573 37.0934 25.9388 36.8225 25.9202 36.5515Z" fill="#F1AF29"/>
<path d="M22.6454 46.8714C33.1294 46.836 43.6134 46.7884 54.0975 46.7688C63.3896 46.7514 72.6817 46.7651 82.2317 46.7651C83.7846 56.0343 81.6362 64.227 75.7418 71.529C75.2832 71.4262 75.0381 71.3529 74.7931 71.2795C74.7677 66.0056 74.7423 60.7316 74.8449 55.1923C75.0952 54.8414 75.1739 54.7261 75.2089 54.5809C75.9208 54.5327 76.6328 54.4845 77.5296 54.4238C77.5296 52.7909 77.5296 51.1724 77.5296 49.3972C60.5949 49.3972 43.6764 49.3972 26.5815 49.3972C26.5815 50.9432 26.5815 52.4968 26.5815 54.3497C27.1179 54.3989 27.7808 54.4597 28.6984 54.6505C29.0442 54.9033 29.1643 54.9823 29.3133 55.0173C29.334 60.2898 29.3547 65.5622 29.1411 71.0577C28.6463 71.2951 28.3858 71.3095 28.1253 71.324C22.3727 64.2041 20.4706 56.0832 22.05 47.0949C22.394 47.0076 22.5197 46.9395 22.6454 46.8714Z" fill="#F1AF29"/>
<path d="M28.2038 71.467C28.387 71.31 28.6475 71.2956 29.1033 71.2795C29.2985 71.6514 29.2985 72.0249 29.2985 72.7086C28.8349 72.2079 28.558 71.9087 28.2038 71.467Z" fill="#F1AF29"/>
<path d="M74.7647 71.4333C75.0369 71.3535 75.2819 71.4268 75.6017 71.608C75.4589 72.0074 75.2413 72.2989 74.8413 72.8348C74.7878 72.1903 74.7627 71.8884 74.7647 71.4333Z" fill="#F1AF29"/>
<path d="M25.7722 36.6256C25.9393 36.823 25.9579 37.094 25.9793 37.568C25.7189 37.7199 25.4556 37.6688 25.1922 37.6177C25.3361 37.3115 25.4799 37.0053 25.7722 36.6256Z" fill="#F1AF29"/>
<path d="M78.7123 37.7722C78.5748 37.6661 78.5828 37.5478 78.6059 37.2517C78.6999 37.3026 78.7789 37.5313 78.7123 37.7722Z" fill="#F1AF29"/>
<path d="M29.3167 54.8857C29.1661 54.982 29.046 54.9031 28.9094 54.6804C29.0155 54.6385 29.1669 54.6964 29.3167 54.8857Z" fill="#F1AF29"/>
<path d="M75.0814 54.5765C75.1747 54.7252 75.096 54.8406 74.8759 54.9686C74.8364 54.865 74.8947 54.7189 75.0814 54.5765Z" fill="#F1AF29"/>
<circle cx="52.2736" cy="52.1531" r="50.2068" stroke="#F1AF29" stroke-width="3.78854"/>
<path d="M25.2675 37.574H78.5635C75.8549 32.3958 67.6175 21.7525 52.513 21.5613C37.4084 21.3701 27.7371 32.2365 25.2675 37.574Z" fill="#F1AF29"/>
<path d="M29.3291 54.7829V72.4685C21.1076 64.2471 21.1236 51.9946 22.1592 46.896H82.1471C84.0591 60.8533 78.0045 69.7599 74.7383 72.4685V54.7829H77.6062V49.286H26.7001V54.0659L29.3291 54.7829Z" fill="#F1AF29"/>
<path d="M49.4086 58.844C49.4086 57.2601 50.6927 55.976 52.2766 55.976C53.8605 55.976 55.1445 57.2601 55.1445 58.844V82.7436H49.4086V58.844Z" fill="#F1AF29"/>
<path d="M61.8333 58.3672C61.8333 56.7833 63.1173 55.4993 64.7012 55.4993C66.2851 55.4993 67.5691 56.7833 67.5691 58.3672V78.2039C67.5691 78.2039 66.6132 78.9208 65.8962 79.3988C65.1792 79.8768 61.8333 80.8328 61.8333 80.8328V58.3672Z" fill="#F1AF29"/>
<path d="M42.2371 58.844C42.2371 57.2601 40.9531 55.976 39.3691 55.976C37.7852 55.976 36.5012 57.2601 36.5012 58.844V78.6806C36.5012 78.6806 37.4572 79.3976 38.1742 79.8756C38.8912 80.3536 42.2371 81.3096 42.2371 81.3096V58.844Z" fill="#F1AF29"/>
<circle cx="52.0379" cy="51.9151" r="34.1941" stroke="#F1AF29" stroke-width="3.78854"/>
</svg>
