<svg width="134" height="44" viewBox="0 0 134 44" fill="none" xmlns="http://www.w3.org/2000/svg">
<path d="M133.976 43.1534C133.976 43.3361 133.918 43.4852 133.803 43.6008C133.691 43.7164 133.544 43.7742 133.361 43.7742H131.158C130.975 43.7742 130.824 43.7164 130.705 43.6008C130.589 43.4852 130.531 43.3361 130.531 43.1534V40.9334H131.309V43.0863H133.199V41.0005L130.783 38.0814C130.615 37.88 130.531 37.6582 130.531 37.4159V35.6432C130.531 35.4605 130.589 35.3114 130.705 35.1958C130.824 35.0802 130.975 35.0225 131.158 35.0225H133.361C133.544 35.0225 133.691 35.0802 133.803 35.1958C133.918 35.3114 133.976 35.4605 133.976 35.6432V37.6787H133.199V35.7103H131.309V37.5557L133.736 40.4748C133.896 40.6687 133.976 40.8868 133.976 41.1291V43.1534Z" fill="#FEAB02"/>
<path d="M129.401 43.7742H128.585L126.957 39.088L127.064 38.9314H128.45V35.7103H126.454V43.7742H125.677V35.0225H128.607C128.79 35.0225 128.939 35.0802 129.054 35.1958C129.17 35.3114 129.228 35.4605 129.228 35.6432V38.9649C129.228 39.3862 128.944 39.5968 128.378 39.5968C128.322 39.5968 128.24 39.595 128.132 39.5912C128.024 39.5838 127.945 39.5801 127.897 39.5801C128.4 40.9744 128.902 42.3724 129.401 43.7742Z" fill="#FEAB02"/>
<path d="M124.458 43.7742H121.584V35.0225H124.425V35.7103H122.361V38.9761H124.24V39.6751H122.361V43.0863H124.458V43.7742Z" fill="#FEAB02"/>
<path d="M120.214 42.1916C120.214 42.6539 120.062 43.0341 119.756 43.3324C119.454 43.6269 119.072 43.7742 118.609 43.7742H116.607V35.0225H118.609C119.075 35.0225 119.459 35.1716 119.761 35.4698C120.063 35.7644 120.214 36.1428 120.214 36.605V42.1916ZM119.437 42.1133V36.6721C119.437 36.3851 119.346 36.1539 119.163 35.9787C118.984 35.7998 118.751 35.7103 118.464 35.7103H117.385V43.0863H118.419C118.721 43.0863 118.965 43.0006 119.152 42.8291C119.342 42.6539 119.437 42.4153 119.437 42.1133Z" fill="#FEAB02"/>
<path d="M115.147 43.7742H114.37V35.0225H115.147V43.7742Z" fill="#FEAB02"/>
<path d="M113.262 43.7742H110.466V35.0225H111.243V43.0863H113.262V43.7742Z" fill="#FEAB02"/>
<path d="M109.063 43.1534C109.063 43.3361 109.003 43.4852 108.884 43.6008C108.768 43.7164 108.619 43.7742 108.437 43.7742H106.054C105.872 43.7742 105.723 43.7164 105.607 43.6008C105.491 43.4852 105.434 43.3361 105.434 43.1534V35.0225H106.211V43.0863H108.286V35.0225H109.063V43.1534Z" fill="#FEAB02"/>
<path d="M104.075 43.1534C104.075 43.3361 104.017 43.4852 103.901 43.6008C103.786 43.7164 103.637 43.7742 103.454 43.7742H100.568V35.0225H103.432C103.614 35.0225 103.763 35.0802 103.879 35.1958C103.994 35.3114 104.052 35.4605 104.052 35.6432V38.2435C104.052 38.4747 103.948 38.6685 103.739 38.8251C103.534 38.9482 103.329 39.0712 103.124 39.1942L103.784 39.6192C103.978 39.7385 104.075 39.9249 104.075 40.1784V43.1534ZM103.269 38.3442V35.7103H101.346V38.8699H102.492L103.269 38.3442ZM103.292 43.0863V40.061L102.503 39.5465H101.346V43.0863H103.292Z" fill="#FEAB02"/>
<path d="M97.3857 39.5465H96.7426V43.7742H93.913C93.7303 43.7742 93.5812 43.7164 93.4656 43.6008C93.3538 43.4852 93.2979 43.3361 93.2979 43.1534V40.1784C93.2979 39.9286 93.3929 39.7422 93.583 39.6192L94.2373 39.1942C94.0323 39.0712 93.8291 38.9482 93.6278 38.8251C93.4227 38.6648 93.3202 38.471 93.3202 38.2435V35.6432C93.3202 35.4605 93.378 35.3114 93.4936 35.1958C93.6091 35.0802 93.7564 35.0225 93.9354 35.0225H96.1498C96.3325 35.0225 96.4816 35.0802 96.5972 35.1958C96.7165 35.3114 96.7762 35.4605 96.7762 35.6432V37.4774H95.9989V35.7103H94.0863V38.3442L94.8748 38.8699H97.3857V39.5465ZM95.9765 43.0863V39.5465H94.8637L94.064 40.061V43.0863H95.9765Z" fill="#FEAB02"/>
<path d="M89.8656 43.7742H86.9912V35.0225H89.832V35.7103H87.7685V38.9761H89.6475V39.6751H87.7685V43.0863H89.8656V43.7742Z" fill="#FEAB02"/>
<path d="M86.0791 35.7103H84.7258V43.7742H83.9485V35.7103H82.584V35.0225H86.0791V35.7103Z" fill="#FEAB02"/>
<path d="M82.0082 43.7741H81.2365L80.9289 41.828H79.1897L78.8822 43.7741H78.1328V43.7517L79.693 35H80.4591L82.0082 43.7741ZM80.8282 41.1402L80.0621 36.398L79.2904 41.1402H80.8282Z" fill="#FEAB02"/>
<path d="M77.5674 35.7103H76.2141V43.7742H75.4368V35.7103H74.0723V35.0225H77.5674V35.7103Z" fill="#FEAB02"/>
<path d="M73.1782 43.1534C73.1782 43.3361 73.1204 43.4852 73.0048 43.6008C72.893 43.7164 72.7457 43.7742 72.563 43.7742H70.3597C70.177 43.7742 70.0261 43.7164 69.9068 43.6008C69.7912 43.4852 69.7334 43.3361 69.7334 43.1534V40.9334H70.5107V43.0863H72.4009V41.0005L69.985 38.0814C69.8173 37.88 69.7334 37.6582 69.7334 37.4159V35.6432C69.7334 35.4605 69.7912 35.3114 69.9068 35.1958C70.0261 35.0802 70.177 35.0225 70.3597 35.0225H72.563C72.7457 35.0225 72.893 35.0802 73.0048 35.1958C73.1204 35.3114 73.1782 35.4605 73.1782 35.6432V37.6787H72.4009V35.7103H70.5107V37.5557L72.9377 40.4748C73.098 40.6687 73.1782 40.8868 73.1782 41.1291V43.1534Z" fill="#FEAB02"/>
<path d="M68.5472 43.7742H65.6729V35.0225H68.5137V35.7103H66.4502V38.9761H68.3291V39.6751H66.4502V43.0863H68.5472V43.7742Z" fill="#FEAB02"/>
<path d="M62.3625 43.7742H59.5664V35.0225H60.3437V43.0863H62.3625V43.7742Z" fill="#FEAB02"/>
<path d="M58.5101 43.7741H57.7384L57.4308 41.828H55.6917L55.3841 43.7741H54.6348V43.7517L56.195 35H56.9611L58.5101 43.7741ZM57.3302 41.1402L56.5641 36.398L55.7923 41.1402H57.3302Z" fill="#FEAB02"/>
<path d="M53.7611 43.7742H50.8867V35.0225H53.7275V35.7103H51.664V38.9761H53.543V39.6751H51.664V43.0863H53.7611V43.7742Z" fill="#FEAB02"/>
<path d="M49.7244 43.7742H48.9079L47.2806 39.088L47.3869 38.9314H48.7737V35.7103H46.7773V43.7742H46V35.0225H48.9303C49.113 35.0225 49.2621 35.0802 49.3777 35.1958C49.4932 35.3114 49.551 35.4605 49.551 35.6432V38.9649C49.551 39.3862 49.2677 39.5968 48.701 39.5968C48.6451 39.5968 48.5631 39.595 48.455 39.5912C48.3468 39.5838 48.2685 39.5801 48.2201 39.5801C48.7234 40.9744 49.2248 42.3724 49.7244 43.7742Z" fill="#FEAB02"/>
<path d="M124.564 25.9367H124.894C124.953 26.6851 125.07 27.3675 125.247 27.9839C125.423 28.5856 125.672 29.1066 125.995 29.5468C126.333 29.9871 126.751 30.332 127.25 30.5815C127.749 30.8163 128.343 30.9337 129.033 30.9337C129.458 30.9337 129.84 30.8676 130.178 30.7356C130.53 30.6035 130.816 30.42 131.036 30.1852C131.271 29.9357 131.425 29.6422 131.498 29.3047C131.586 28.9672 131.579 28.6003 131.476 28.204C131.359 27.7784 131.073 27.4336 130.618 27.1694C130.178 26.9052 129.657 26.6338 129.055 26.3549C128.541 26.1201 128.013 25.8633 127.47 25.5845C126.942 25.3056 126.45 24.9607 125.995 24.5498C125.54 24.1242 125.166 23.6179 124.872 23.0309C124.594 22.4439 124.454 21.7248 124.454 20.8736C124.454 20.7415 124.454 20.5948 124.454 20.4333C124.469 20.2719 124.491 20.1105 124.52 19.949C124.682 18.7603 125.085 17.8798 125.731 17.3075C126.377 16.7204 127.25 16.3976 128.35 16.3389C128.967 16.3242 129.48 16.4196 129.891 16.625C130.302 16.8305 130.64 17.0286 130.904 17.2194C131.153 17.4249 131.359 17.5276 131.52 17.5276C131.726 17.5276 131.851 17.4322 131.895 17.2414C131.939 17.036 131.961 16.8452 131.961 16.6691H132.313V21.0937H131.939C131.836 20.448 131.696 19.861 131.52 19.3327C131.344 18.7897 131.109 18.3347 130.816 17.9679C130.537 17.5863 130.192 17.2928 129.781 17.0873C129.37 16.8819 128.879 16.7791 128.306 16.7791C127.925 16.7791 127.558 16.8305 127.206 16.9332C126.854 17.036 126.545 17.1974 126.281 17.4175C126.032 17.623 125.834 17.8945 125.687 18.232C125.555 18.5696 125.503 18.9731 125.533 19.4427C125.562 19.839 125.665 20.1839 125.841 20.4774C126.017 20.7562 126.245 21.0057 126.523 21.2258C126.802 21.4313 127.118 21.6147 127.47 21.7762C127.822 21.9376 128.189 22.0917 128.571 22.2384C129.055 22.4292 129.539 22.6493 130.023 22.8988C130.522 23.1336 130.977 23.4345 131.388 23.8014C131.814 24.1536 132.166 24.5865 132.445 25.1002C132.738 25.6138 132.922 26.2375 132.995 26.9713C133.025 27.6464 132.937 28.2627 132.731 28.8204C132.54 29.3634 132.261 29.833 131.895 30.2293C131.542 30.6255 131.109 30.9337 130.596 31.1538C130.097 31.3593 129.554 31.462 128.967 31.462C128.394 31.462 127.888 31.3739 127.448 31.1978C127.008 31.0364 126.626 30.875 126.303 30.7135C126.127 30.6108 125.958 30.5301 125.797 30.4714C125.65 30.398 125.503 30.3613 125.357 30.3613C125.195 30.3613 125.078 30.4787 125.004 30.7135C124.946 30.9484 124.909 31.1538 124.894 31.3299H124.564V25.9367Z" fill="#FEAB02"/>
<path d="M123.181 15.7002C123.049 16.2138 122.881 16.7715 122.675 17.3732C122.47 17.9749 122.242 18.5766 121.993 19.1783C121.758 19.7653 121.523 20.3229 121.288 20.8513H119.857C119.96 20.4404 120.063 20.0001 120.166 19.5305C120.283 19.0608 120.386 18.5912 120.474 18.1216C120.577 17.6373 120.665 17.1677 120.738 16.7128C120.826 16.2578 120.899 15.8396 120.958 15.458H123.027L123.181 15.7002Z" fill="#FEAB02"/>
<path d="M110.986 30.8016H112.329V31.1758H107.354V30.8016H108.564V16.8671H107.354V16.4929H113.715C114.2 16.4929 114.677 16.5516 115.146 16.669C115.616 16.7864 116.027 16.9846 116.379 17.2634C116.746 17.5275 117.039 17.8871 117.259 18.342C117.494 18.7823 117.612 19.34 117.612 20.015C117.612 20.5287 117.531 20.9763 117.37 21.3579C117.223 21.7394 117.017 22.0696 116.753 22.3485C116.489 22.6126 116.181 22.8327 115.829 23.0089C115.476 23.185 115.102 23.317 114.706 23.4051V23.6472C115.322 23.8087 115.799 24.0728 116.137 24.4397C116.489 24.7919 116.753 25.1955 116.929 25.6504C117.105 26.1054 117.215 26.5897 117.259 27.1033C117.304 27.6023 117.333 28.0792 117.348 28.5342C117.362 28.8571 117.377 29.1652 117.392 29.4587C117.421 29.7376 117.465 29.9871 117.524 30.2072C117.582 30.4127 117.67 30.5814 117.788 30.7135C117.905 30.8309 118.067 30.8896 118.272 30.8896C118.404 30.8896 118.529 30.8749 118.646 30.8456C118.764 30.8016 118.881 30.7575 118.999 30.7135C119.013 30.7135 119.028 30.7062 119.043 30.6915L119.175 31.0217C118.925 31.1391 118.676 31.2198 118.426 31.2638C118.191 31.3079 117.949 31.3299 117.7 31.3299C117.054 31.3299 116.548 31.2345 116.181 31.0437C115.814 30.8529 115.528 30.5888 115.322 30.2512C115.132 29.9137 114.999 29.5101 114.926 29.0405C114.867 28.5709 114.816 28.0499 114.772 27.4776C114.757 27.3014 114.743 27.118 114.728 26.9272C114.713 26.7364 114.691 26.5383 114.662 26.3329C114.589 25.7018 114.434 25.2102 114.2 24.858C113.98 24.5058 113.701 24.2489 113.363 24.0875C113.04 23.9114 112.673 23.8087 112.262 23.7793C111.852 23.7353 111.426 23.7133 110.986 23.7133V30.8016ZM110.986 16.8671V23.3611H111.69C112.101 23.3611 112.505 23.3024 112.901 23.185C113.312 23.0676 113.671 22.8841 113.98 22.6346C114.288 22.3705 114.537 22.0403 114.728 21.644C114.919 21.2331 115.014 20.7341 115.014 20.1471C115.014 19.4867 114.926 18.9437 114.75 18.5181C114.574 18.0926 114.332 17.7624 114.024 17.5275C113.715 17.2781 113.356 17.1093 112.945 17.0212C112.534 16.9185 112.094 16.8671 111.624 16.8671H110.986Z" fill="#FEAB02"/>
<path d="M98.8434 30.7355H100.979C101.654 30.7355 102.277 30.7208 102.85 30.6915C103.437 30.6475 103.943 30.508 104.369 30.2732C104.794 30.0238 105.132 29.6349 105.381 29.1065C105.631 28.5782 105.756 27.8224 105.756 26.8392H106.13V31.1758H95.0791V30.8016H96.1798V16.8671H95.0791V16.4929H106.108L106.13 20.1031H105.756C105.638 19.2959 105.425 18.6796 105.117 18.254C104.824 17.8137 104.457 17.4982 104.016 17.3074C103.591 17.102 103.099 16.9919 102.542 16.9772C101.999 16.9479 101.412 16.9332 100.781 16.9332H98.8434V23.4271H99.4157C99.8707 23.4271 100.267 23.4124 100.604 23.3831C100.957 23.3537 101.25 23.2583 101.485 23.0969C101.72 22.9355 101.896 22.686 102.013 22.3485C102.131 21.9962 102.197 21.512 102.211 20.8956H102.564V26.4429H102.211C102.197 25.8853 102.138 25.445 102.035 25.1221C101.947 24.7846 101.815 24.5351 101.639 24.3737C101.463 24.1976 101.25 24.0875 101.001 24.0435C100.751 23.9848 100.465 23.9554 100.142 23.9554H98.8434V30.7355Z" fill="#FEAB02"/>
<path d="M87.4551 16.8671H87.147C86.4425 16.8671 85.8629 16.9258 85.4079 17.0433C84.953 17.146 84.5861 17.3514 84.3072 17.6596C84.0431 17.9531 83.8523 18.364 83.7349 18.8924C83.6322 19.406 83.5808 20.0811 83.5808 20.9176H83.1846C83.2139 20.1545 83.2286 19.4134 83.2286 18.6942C83.2433 17.9751 83.2653 17.2414 83.2946 16.4929H94.1912C94.2059 17.2414 94.2132 17.9751 94.2132 18.6942C94.2279 19.4134 94.2426 20.1545 94.2573 20.9176H93.905C93.905 20.0224 93.8463 19.3106 93.7289 18.7823C93.6115 18.2393 93.4061 17.8284 93.1126 17.5496C92.8337 17.256 92.4448 17.0726 91.9459 16.9992C91.4616 16.9112 90.8305 16.8671 90.0527 16.8671V30.8016H91.5496V31.1758H85.8922V30.8016H87.4551V16.8671Z" fill="#FEAB02"/>
<path d="M73.6794 25.9367H74.0096C74.0683 26.6851 74.1857 27.3675 74.3618 27.9839C74.5379 28.5856 74.7874 29.1066 75.1103 29.5468C75.4478 29.9871 75.8661 30.332 76.365 30.5815C76.864 30.8163 77.4584 30.9337 78.1481 30.9337C78.5737 30.9337 78.9553 30.8676 79.2928 30.7356C79.645 30.6035 79.9312 30.42 80.1513 30.1852C80.3861 29.9357 80.5402 29.6422 80.6136 29.3047C80.7016 28.9672 80.6943 28.6003 80.5916 28.204C80.4742 27.7784 80.188 27.4336 79.7331 27.1694C79.2928 26.9052 78.7718 26.6338 78.1701 26.3549C77.6565 26.1201 77.1282 25.8633 76.5852 25.5845C76.0568 25.3056 75.5652 24.9607 75.1103 24.5498C74.6553 24.1242 74.2811 23.6179 73.9876 23.0309C73.7088 22.4439 73.5693 21.7248 73.5693 20.8736C73.5693 20.7415 73.5693 20.5948 73.5693 20.4333C73.584 20.2719 73.606 20.1105 73.6354 19.949C73.7968 18.7603 74.2004 17.8798 74.8461 17.3075C75.4918 16.7204 76.365 16.3976 77.4657 16.3389C78.0821 16.3242 78.5957 16.4196 79.0066 16.625C79.4175 16.8305 79.7551 17.0286 80.0192 17.2194C80.2687 17.4249 80.4742 17.5276 80.6356 17.5276C80.8411 17.5276 80.9658 17.4322 81.0098 17.2414C81.0539 17.036 81.0759 16.8452 81.0759 16.6691H81.4281V21.0937H81.0539C80.9511 20.448 80.8117 19.861 80.6356 19.3327C80.4595 18.7897 80.2247 18.3347 79.9312 17.9679C79.6523 17.5863 79.3075 17.2928 78.8966 17.0873C78.4856 16.8819 77.994 16.7791 77.4217 16.7791C77.0401 16.7791 76.6732 16.8305 76.321 16.9332C75.9688 17.036 75.6606 17.1974 75.3964 17.4175C75.147 17.623 74.9488 17.8945 74.8021 18.232C74.67 18.5696 74.6186 18.9731 74.648 19.4427C74.6773 19.839 74.7801 20.1839 74.9562 20.4774C75.1323 20.7562 75.3598 21.0057 75.6386 21.2258C75.9174 21.4313 76.2329 21.6147 76.5852 21.7762C76.9374 21.9376 77.3043 22.0917 77.6858 22.2384C78.1701 22.4292 78.6544 22.6493 79.1387 22.8988C79.6377 23.1336 80.0926 23.4345 80.5035 23.8014C80.9291 24.1536 81.2813 24.5865 81.5602 25.1002C81.8537 25.6138 82.0371 26.2375 82.1105 26.9713C82.1398 27.6464 82.0518 28.2627 81.8463 28.8204C81.6556 29.3634 81.3767 29.833 81.0098 30.2293C80.6576 30.6255 80.2247 30.9337 79.711 31.1538C79.2121 31.3593 78.6691 31.462 78.0821 31.462C77.5097 31.462 77.0034 31.3739 76.5631 31.1978C76.1229 31.0364 75.7413 30.875 75.4185 30.7135C75.2423 30.6108 75.0736 30.5301 74.9121 30.4714C74.7654 30.398 74.6186 30.3613 74.4719 30.3613C74.3104 30.3613 74.193 30.4787 74.1197 30.7135C74.061 30.9484 74.0243 31.1538 74.0096 31.3299H73.6794V25.9367Z" fill="#FEAB02"/>
<path d="M60.6455 30.801C60.9684 30.801 61.2325 30.779 61.438 30.7349C61.6434 30.6909 61.8122 30.6102 61.9443 30.4928C62.0764 30.3754 62.1864 30.2066 62.2745 29.9865C62.3625 29.7517 62.4653 29.4582 62.5827 29.106C63.2137 26.9633 63.8521 24.828 64.4978 22.7001C65.1436 20.5575 65.7893 18.4148 66.435 16.2722H67.1835L71.8723 30.801H72.8409V31.1752H67.5797V30.801H69.0546L67.6457 26.3763H63.8154L63.6613 26.8166C63.5879 27.0367 63.4999 27.3156 63.3972 27.6531C63.2944 27.9906 63.1917 28.3282 63.089 28.6657C63.0009 29.0032 62.9202 29.3114 62.8468 29.5903C62.7735 29.8691 62.7368 30.0599 62.7368 30.1626C62.7368 30.3387 62.8028 30.4708 62.9349 30.5588C63.0816 30.6469 63.2504 30.7129 63.4412 30.757C63.632 30.7863 63.8228 30.801 64.0135 30.801C64.219 30.801 64.3804 30.801 64.4978 30.801H64.5419V31.1752H60.6455V30.801ZM63.9255 26.0021H67.5357L65.6866 20.2346L63.9255 26.0021Z" fill="#FEAB02"/>
<path d="M45.415 30.7795H45.5031V30.6475L45.415 30.7795ZM45.5031 31.1758V30.7795H45.7673C46.1341 30.7942 46.457 30.7722 46.7358 30.7135C47.0293 30.6548 47.1981 30.4273 47.2421 30.0311C47.2568 29.899 47.2715 29.6275 47.2862 29.2166C47.3008 28.791 47.3082 28.2847 47.3082 27.6977C47.3229 27.096 47.3302 26.4356 47.3302 25.7165C47.3302 24.9827 47.3302 24.2416 47.3302 23.4931C47.3302 22.686 47.3229 21.8935 47.3082 21.1157C47.3082 20.3232 47.3008 19.6188 47.2862 19.0024C47.2862 18.3861 47.2715 17.8871 47.2421 17.5055C47.2275 17.1093 47.2055 16.8965 47.1761 16.8671H45.5691V16.4929H49.8177L53.2738 26.4209L56.7079 16.4929H60.318V16.8671H59.1293V30.8016H60.318V31.1758H55.233V30.7795H56.4657L56.4877 19.0244L56.3116 18.9804C55.6365 20.9763 54.9541 22.9722 54.2644 24.968C53.5893 26.9492 52.8996 28.9378 52.1951 30.9336L47.8805 18.7163L47.7044 18.7603V28.7763C47.7044 29.2019 47.7044 29.5028 47.7044 29.6789C47.7044 29.855 47.7191 30.0017 47.7484 30.1191C47.7631 30.2953 47.8292 30.4347 47.9466 30.5374C48.064 30.6255 48.2034 30.6915 48.3648 30.7355C48.5409 30.7795 48.717 30.8016 48.8931 30.8016C49.0839 30.8016 49.2674 30.8016 49.4435 30.8016H49.5976V31.1758H45.5031Z" fill="#FEAB02"/>
<path d="M1 43.8955V19.5881H9.30709L17.2603 32.9838L25.0696 19.5881H33.8865V43.8955H32.6629L32.7349 39.3904L29.8919 40.658V43.8955H29.3881V40.5095H28.5484V37.3348H26.0772V39.3447C26.0772 39.3447 25.5734 39.3447 25.4774 39.3447C25.3815 39.3447 25.4774 43.8955 25.4774 43.8955H24.7097V32.6983L24.0859 32.1044V30.6427H23.4142V32.1273L22.7664 32.6526V34.1829H21.6388V43.8955H21.2789V37.8601L18.9277 36.5125V43.8955H18.4239V38.02L15.9288 39.8015V43.8955H15.5209V36.5354H13.2177V43.8955H12.9298V32.9495H12.1861V29.2951H11.2744V27.9742H10.5067V29.318H8.97121V43.8955H8.56335V34.4798L5.68436 36.3527V40.578H4.91663V43.8955H4.4368V42.4281H2.46949V43.2503H2.10961V43.8955H1Z" fill="url(#paint0_linear_2286_207)" stroke="black" stroke-width="0.223994" stroke-miterlimit="10"/>
<path d="M16.81 32.4566L18.1921 30.004V23.4508H20.92L22.4476 21.0178H11.0088L12.3182 23.333H15.4461V30.1218L16.81 32.4566Z" fill="url(#paint1_linear_2286_207)" stroke="black" stroke-width="0.223994" stroke-miterlimit="10"/>
<path d="M17.6712 19.5576H18.1584V17.3756L17.5246 16.7285L16.7285 17.2535V19.571C16.7285 19.571 17.1469 19.6061 17.1469 19.576C17.1469 19.5459 17.1575 17.5896 17.1575 17.5896L17.4011 17.3906L17.6712 17.6164V19.5576Z" fill="url(#paint2_linear_2286_207)" stroke="black" stroke-width="0.223994" stroke-miterlimit="10"/>
<path d="M15.298 15.2986L13.8682 15.7226V19.5881H15.298V15.2986Z" fill="url(#paint3_linear_2286_207)" stroke="black" stroke-width="0.223994" stroke-miterlimit="10"/>
<path d="M13.8683 16.7285L12.4385 17.0111V19.5882H13.8683V16.7285Z" fill="url(#paint4_linear_2286_207)" stroke="black" stroke-width="0.203453" stroke-miterlimit="10"/>
<path d="M19.5879 15.2986L21.0177 15.7226V19.5881H19.5879V15.2986Z" fill="url(#paint5_linear_2286_207)" stroke="black" stroke-width="0.251254" stroke-miterlimit="10"/>
<path d="M21.0176 16.7285L22.4474 17.0111V19.5882H21.0176V16.7285Z" fill="url(#paint6_linear_2286_207)" stroke="black" stroke-width="0.228227" stroke-miterlimit="10"/>
<path d="M22.068 14.1995V10.8824L17.7348 8.34844V6.07941L22.0918 5.8836L17.7348 5.34226L17.4848 1L17.0086 5.26163L12.854 5.65324L16.9491 6.07941V8.37148L12.6873 10.9054V14.3493L11.0088 15.4665V19.588H11.5564V15.6969L17.4431 12.3452L23.1513 15.789L23.1751 19.588H23.8774V15.5356L22.068 14.1995ZM21.5799 13.9231L20.318 13.3933V11.8729L19.7565 11.3297V12.9786L17.4818 11.6656L15.1277 13.0938V11.5044L14.587 12.0265V13.4048L13.2944 14.1535V11.0897L17.4104 8.80916L21.5799 11.1127V13.9231Z" fill="url(#paint7_linear_2286_207)" stroke="black" stroke-width="0.280328" stroke-miterlimit="10"/>
<defs>
<linearGradient id="paint0_linear_2286_207" x1="1.38679" y1="23.6861" x2="30.7884" y2="39.9626" gradientUnits="userSpaceOnUse">
<stop offset="0.014" stop-color="#F3BE40"/>
<stop offset="0.5726" stop-color="#F8D87B"/>
<stop offset="1" stop-color="#D08537"/>
</linearGradient>
<linearGradient id="paint1_linear_2286_207" x1="11.0088" y1="26.7374" x2="22.4476" y2="26.7374" gradientUnits="userSpaceOnUse">
<stop offset="0.014" stop-color="#F3BE40"/>
<stop offset="0.5726" stop-color="#F8D87B"/>
<stop offset="1" stop-color="#D08537"/>
</linearGradient>
<linearGradient id="paint2_linear_2286_207" x1="16.7285" y1="18.1583" x2="18.1584" y2="18.1583" gradientUnits="userSpaceOnUse">
<stop offset="0.014" stop-color="#F3BE40"/>
<stop offset="0.5726" stop-color="#F8D87B"/>
<stop offset="1" stop-color="#D08537"/>
</linearGradient>
<linearGradient id="paint3_linear_2286_207" x1="13.8682" y1="17.4435" x2="15.298" y2="17.4435" gradientUnits="userSpaceOnUse">
<stop offset="0.014" stop-color="#F3BE40"/>
<stop offset="0.5726" stop-color="#F8D87B"/>
<stop offset="1" stop-color="#D08537"/>
</linearGradient>
<linearGradient id="paint4_linear_2286_207" x1="12.4385" y1="18.1585" x2="13.8683" y2="18.1585" gradientUnits="userSpaceOnUse">
<stop offset="0.014" stop-color="#F3BE40"/>
<stop offset="0.5726" stop-color="#F8D87B"/>
<stop offset="1" stop-color="#D08537"/>
</linearGradient>
<linearGradient id="paint5_linear_2286_207" x1="19.5876" y1="17.4435" x2="21.0186" y2="17.4435" gradientUnits="userSpaceOnUse">
<stop offset="0.014" stop-color="#F3BE40"/>
<stop offset="0.5726" stop-color="#F8D87B"/>
<stop offset="1" stop-color="#D08537"/>
</linearGradient>
<linearGradient id="paint6_linear_2286_207" x1="21.0182" y1="18.1585" x2="22.4474" y2="18.1585" gradientUnits="userSpaceOnUse">
<stop offset="0.014" stop-color="#F3BE40"/>
<stop offset="0.5726" stop-color="#F8D87B"/>
<stop offset="1" stop-color="#D08537"/>
</linearGradient>
<linearGradient id="paint7_linear_2286_207" x1="11.0088" y1="10.2939" x2="23.8774" y2="10.2939" gradientUnits="userSpaceOnUse">
<stop offset="0.014" stop-color="#F3BE40"/>
<stop offset="0.5726" stop-color="#F8D87B"/>
<stop offset="1" stop-color="#D08537"/>
</linearGradient>
</defs>
</svg>
