<?xml version="1.0" encoding="UTF-8"?>
<svg id="Layer_1" data-name="Layer 1" xmlns="http://www.w3.org/2000/svg" version="1.1" xmlns:xlink="http://www.w3.org/1999/xlink" viewBox="0 0 544.9 269.1">
  <defs>
    <style>
      .cls-1 {
        clip-path: url(#clippath-20);
      }

      .cls-2 {
        clip-path: url(#clippath-11);
      }

      .cls-3 {
        clip-path: url(#clippath-16);
      }

      .cls-4 {
        clip-path: url(#clippath-13);
      }

      .cls-5 {
        isolation: isolate;
      }

      .cls-6 {
        clip-path: url(#clippath-15);
      }

      .cls-7 {
        clip-path: url(#clippath-6);
      }

      .cls-8, .cls-9 {
        fill: none;
      }

      .cls-8, .cls-10, .cls-11 {
        stroke-width: 0px;
      }

      .cls-12 {
        clip-path: url(#clippath-7);
      }

      .cls-13 {
        clip-path: url(#clippath-21);
      }

      .cls-14 {
        clip-path: url(#clippath-1);
      }

      .cls-15 {
        clip-path: url(#clippath-4);
      }

      .cls-9 {
        stroke: #e9d457;
        stroke-linecap: round;
        stroke-linejoin: round;
        stroke-width: .5px;
      }

      .cls-10 {
        fill: #e9d457;
        fill-rule: evenodd;
      }

      .cls-16 {
        clip-path: url(#clippath-12);
      }

      .cls-17 {
        clip-path: url(#clippath-22);
      }

      .cls-18 {
        clip-path: url(#clippath-9);
      }

      .cls-19 {
        clip-path: url(#clippath);
      }

      .cls-20 {
        clip-path: url(#clippath-19);
      }

      .cls-21 {
        clip-path: url(#clippath-8);
      }

      .cls-11 {
        fill: #fff;
      }

      .cls-22 {
        clip-path: url(#clippath-18);
      }

      .cls-23 {
        clip-path: url(#clippath-14);
      }

      .cls-24 {
        clip-path: url(#clippath-17);
      }

      .cls-25 {
        clip-path: url(#clippath-5);
      }

      .cls-26 {
        clip-path: url(#clippath-10);
      }

      .cls-27 {
        clip-path: url(#clippath-23);
      }
    </style>
    <clipPath id="clippath">
      <rect class="cls-8" x="-791.9" y="419.3" width="596.3" height="299.8"/>
    </clipPath>
    <clipPath id="clippath-1">
      <rect class="cls-8" x="1.7" y="-1.6" width="541.5" height="272.3"/>
    </clipPath>
    <clipPath id="clippath-2">
      <rect class="cls-8" x="3.2" y="0" width="538.5" height="269.3"/>
    </clipPath>
    <clipPath id="clippath-4">
      <rect class="cls-8" x="99.6" y="39.1" width="352.1" height="191.5"/>
    </clipPath>
    <clipPath id="clippath-5">
      <rect class="cls-8" x="99.6" y="39.1" width="352.1" height="191.5"/>
    </clipPath>
    <clipPath id="clippath-6">
      <polygon class="cls-8" points="132.8 135.1 145.4 84.4 160.4 84.4 160.4 170.6 146.8 170.6 148.2 114.2 138 155 127.6 155 117.4 114.2 118.8 170.6 105.2 170.6 105.2 84.4 120.2 84.4 132.8 135.1"/>
    </clipPath>
    <clipPath id="clippath-7">
      <rect class="cls-8" x="89.1" y="2.5" width="375.2" height="250.1"/>
    </clipPath>
    <clipPath id="clippath-8">
      <rect class="cls-8" x="104.9" y="84.4" width="55.7" height="86.2"/>
    </clipPath>
    <clipPath id="clippath-9">
      <polygon class="cls-8" points="202.5 170.6 202.5 106.9 216.1 113.2 216.1 170.6 202.5 170.6"/>
    </clipPath>
    <clipPath id="clippath-10">
      <rect class="cls-8" x="89.1" y="2.5" width="375.2" height="250.1"/>
    </clipPath>
    <clipPath id="clippath-11">
      <rect class="cls-8" x="202.2" y="106.7" width="14" height="64"/>
    </clipPath>
    <clipPath id="clippath-12">
      <path class="cls-8" d="M369.5,128.6v-28.7c0-3.4-2-5-5.9-5h-3.7c-4,0-5.9,1.7-5.9,5v28.7h15.6ZM354,170.6h-13.6v-71.5c0-9.9,5.4-14.8,16.3-14.8h10.2c10.9,0,16.3,4.9,16.3,14.8v71.5h-13.6v-31.6h-15.6v31.6h0Z"/>
    </clipPath>
    <clipPath id="clippath-13">
      <rect class="cls-8" x="89.1" y="2.5" width="375.2" height="250.1"/>
    </clipPath>
    <clipPath id="clippath-14">
      <rect class="cls-8" x="340.1" y="84.4" width="43.1" height="86.2"/>
    </clipPath>
    <clipPath id="clippath-15">
      <path class="cls-8" d="M419.6,160.2h8.9c4.1,0,6.1-2.1,6.1-6.2v-69.5h13.6v71.7c0,9.7-5.2,14.5-15.7,14.5h-12.9v-10.5h0Z"/>
    </clipPath>
    <clipPath id="clippath-16">
      <rect class="cls-8" x="89.1" y="2.5" width="375.2" height="250.1"/>
    </clipPath>
    <clipPath id="clippath-17">
      <rect class="cls-8" x="419.4" y="84.4" width="29.1" height="86.2"/>
    </clipPath>
    <clipPath id="clippath-18">
      <path class="cls-8" d="M256.4,219.5c5.4-1.6,16.6-12.5,21.5-16.2,1.3-1,1.6-1.5,2.8-2.6,8.8-8.4,17.8-19.4,20.4-33.8,1.9-10.6-3.5-6.4-11.5-20.3-2.8-4.8-4.8-9.2-6.2-15.3-1-4.3-2.2-16.4-.3-20,1.4,1.2,3.3,5.9,5.9,8.2,2.7,2.4,6.8,2.5,10.9,3.5,13.9,3.1,12.3,12.5,14.3,14.4,2,1.1,13.6,3,16.3,2.6,4.2-6.2,6.6-5.5.9-15.8-4.1-7.4-13.4-23.3-16.6-30-.9-1.9-3.1-6.3-2.6-8.7.5-2.5,3.1-5.2,4-8l-6.1,1.6,2.8-8.9c-11,.5-11,7.1-17,7.6-16.2,1.3-23.3,1.3-37.9,11-4,2.6-11.4,8.2-13.1,11.7,1,1.1,4.4,3.6,6.2,4.2,1.7-1.3,4.5-4,6-5.5,5.3-5.3,15.5-10.8,23.4-11.9-1.7,2-9,4.2-14.2,9.3-3.2,3.2-6.9,7.4-8.4,11.8-1,3.1,1,3.4,4.2,7.2,9.8,11.3,23.5,33.5,17.1,53.1-2.8-21.8-5.8-33.9-19-47.9-5.6-6-4.1-4.9-11.5-11.2-5.4-4.6-11-8.8-17.1-13.1-19.9-14.1-32.4-23.5-47.9-41.8-6.1-7.2-7.5-10.4-12.2-17.6-1,5.9,2.1,27.1,4,32.7,1.5,4.7,4.4,8.4,6.6,12.1,8,13.1,17.3,16.1,33,23,23,10.1,50,28.2,55.6,56,5.7,28-13.6,55.4-14.4,58.8h0Z"/>
    </clipPath>
    <clipPath id="clippath-19">
      <rect class="cls-8" x="110.6" y="33.8" width="286.1" height="188.7"/>
    </clipPath>
    <clipPath id="clippath-20">
      <rect class="cls-8" x="170.5" y="36.7" width="166.9" height="182.9"/>
    </clipPath>
    <clipPath id="clippath-21">
      <path class="cls-8" d="M-191.9,746.3c5.9-1.8,18.3-13.7,23.7-17.8,1.5-1.1,1.7-1.6,3.1-2.9,9.7-9.2,19.6-21.4,22.4-37.3,2.1-11.7-3.8-7.1-12.6-22.3-3.1-5.3-5.2-10.1-6.8-16.9-1.1-4.7-2.4-18.1-.3-22,1.5,1.4,3.6,6.5,6.5,9,3,2.6,7.5,2.8,12,3.8,15.3,3.5,13.6,13.8,15.8,15.8,2.2,1.2,14.9,3.3,17.9,2.9,4.6-6.8,7.2-6.1,1-17.4-4.5-8.2-14.8-25.7-18.3-33.1-1-2.1-3.4-6.9-2.9-9.6.6-2.8,3.4-5.7,4.4-8.8l-6.7,1.7,3.1-9.8c-12.1.6-12.1,7.8-18.7,8.4-17.8,1.4-25.6,1.5-41.8,12-4.4,2.9-12.6,9.1-14.4,12.9,1.1,1.2,4.8,3.9,6.8,4.6,1.9-1.4,4.9-4.4,6.6-6,5.9-5.8,17.1-11.9,25.8-13.1-1.9,2.2-9.9,4.7-15.6,10.3-3.6,3.5-7.6,8.2-9.2,13-1.1,3.4,1,3.7,4.7,7.9,10.8,12.4,25.9,36.9,18.8,58.5-3.1-24-6.4-37.4-20.9-52.8-6.2-6.6-4.6-5.3-12.6-12.3-6-5.1-12.1-9.7-18.8-14.4-21.9-15.5-35.7-25.9-52.8-46.1-6.8-8-8.2-11.4-13.5-19.4-1.1,6.5,2.4,29.9,4.4,36,1.7,5.2,4.8,9.2,7.3,13.3,8.8,14.4,19,17.7,36.4,25.3,25.3,11.1,55,31,61.2,61.7,6.3,30.9-14.9,61-15.8,64.7h0Z"/>
    </clipPath>
    <clipPath id="clippath-22">
      <rect class="cls-8" x="-352.6" y="541.8" width="315.1" height="207.7"/>
    </clipPath>
    <clipPath id="clippath-23">
      <rect class="cls-8" x="-286.6" y="544.9" width="183.8" height="201.4"/>
    </clipPath>
  </defs>
  <g class="cls-19">
    <g>
      <path class="cls-10" d="M-511.4,662.8c5.9-1.8,18.3-13.7,23.7-17.8,1.5-1.1,1.7-1.6,3-2.9,9.7-9.2,19.5-21.4,22.4-37.3,2.1-11.7-3.8-7.1-12.6-22.3-3.1-5.3-5.2-10.1-6.8-16.9-1.1-4.7-2.4-18.1-.3-22,1.5,1.4,3.6,6.5,6.5,9,3,2.6,7.5,2.8,12,3.8,15.3,3.5,13.6,13.8,15.8,15.8,2.2,1.2,14.9,3.3,17.9,2.9,4.6-6.8,7.2-6.1,1-17.4-4.5-8.2-14.8-25.7-18.3-33.1-1-2.1-3.4-6.9-2.9-9.6.5-2.8,3.4-5.7,4.4-8.8l-6.7,1.7,3.1-9.8c-12.1.6-12.1,7.9-18.7,8.4-17.8,1.4-25.6,1.5-41.8,12-4.4,2.9-12.6,9.1-14.5,12.9,1.1,1.2,4.8,3.9,6.8,4.6,1.9-1.4,4.9-4.4,6.6-6,5.9-5.8,17.1-11.9,25.8-13.1-1.9,2.2-9.9,4.7-15.6,10.3-3.6,3.5-7.6,8.2-9.2,13-1.1,3.4,1,3.7,4.7,7.9,10.8,12.4,25.9,36.9,18.8,58.5-3.1-24-6.4-37.4-20.9-52.8-6.2-6.6-4.6-5.3-12.6-12.3-6-5.1-12.1-9.7-18.8-14.4-21.8-15.5-35.7-25.9-52.8-46.1-6.8-8-8.2-11.4-13.5-19.4-1.1,6.5,2.3,29.9,4.4,36,1.7,5.2,4.8,9.2,7.3,13.3,8.8,14.4,19,17.7,36.3,25.3,25.3,11.1,55,31,61.2,61.7,6.3,30.9-14.9,61-15.8,64.7"/>
      <path class="cls-9" d="M-511.4,662.8c5.9-1.8,18.3-13.7,23.7-17.8,1.5-1.1,1.7-1.6,3-2.9,9.7-9.2,19.5-21.4,22.4-37.3,2.1-11.7-3.8-7.1-12.6-22.3-3.1-5.3-5.2-10.1-6.8-16.9-1.1-4.7-2.4-18.1-.3-22,1.5,1.4,3.6,6.5,6.5,9,3,2.6,7.5,2.8,12,3.8,15.3,3.5,13.6,13.8,15.8,15.8,2.2,1.2,14.9,3.3,17.9,2.9,4.6-6.8,7.2-6.1,1-17.4-4.5-8.2-14.8-25.7-18.3-33.1-1-2.1-3.4-6.9-2.9-9.6.5-2.8,3.4-5.7,4.4-8.8l-6.7,1.7,3.1-9.8c-12.1.6-12.1,7.9-18.7,8.4-17.8,1.4-25.6,1.5-41.8,12-4.4,2.9-12.6,9.1-14.5,12.9,1.1,1.2,4.8,3.9,6.8,4.6,1.9-1.4,4.9-4.4,6.6-6,5.9-5.8,17.1-11.9,25.8-13.1-1.9,2.2-9.9,4.7-15.6,10.3-3.6,3.5-7.6,8.2-9.2,13-1.1,3.4,1,3.7,4.7,7.9,10.8,12.4,25.9,36.9,18.8,58.5-3.1-24-6.4-37.4-20.9-52.8-6.2-6.6-4.6-5.3-12.6-12.3-6-5.1-12.1-9.7-18.8-14.4-21.8-15.5-35.7-25.9-52.8-46.1-6.8-8-8.2-11.4-13.5-19.4-1.1,6.5,2.3,29.9,4.4,36,1.7,5.2,4.8,9.2,7.3,13.3,8.8,14.4,19,17.7,36.3,25.3,25.3,11.1,55,31,61.2,61.7,6.3,30.9-14.9,61-15.8,64.7h0Z"/>
    </g>
  </g>
  <g class="cls-14">
    <g>
      <g class="cls-15">
        <g class="cls-25">
          <image class="cls-5" width="977" height="532" transform="translate(99.9 39.1) scale(.4)" xlink:href="Miraj Full Logo-1.png"/>
        </g>
      </g>
      <polygon class="cls-11" points="132.8 135.1 145.4 84.4 160.4 84.4 160.4 170.6 146.8 170.6 148.2 114.2 138 155 127.6 155 117.4 114.2 118.8 170.6 105.2 170.6 105.2 84.4 120.2 84.4 132.8 135.1"/>
      <g class="cls-7">
        <g class="cls-12">
          <g class="cls-21">
            <image class="cls-5" width="155" height="242" transform="translate(105.1 84.4) scale(.4)" xlink:href="Miraj Full Logo-2.png"/>
          </g>
        </g>
      </g>
      <polygon class="cls-11" points="202.5 170.6 202.5 106.9 216.1 113.2 216.1 170.6 202.5 170.6"/>
      <g class="cls-18">
        <g class="cls-26">
          <g class="cls-2">
            <image class="cls-5" width="39" height="178" transform="translate(202.2 106.7) scale(.4)" xlink:href="Miraj Full Logo-3.png"/>
          </g>
        </g>
      </g>
      <path class="cls-11" d="M369.5,128.6v-28.7c0-3.4-2-5-5.9-5h-3.7c-4,0-5.9,1.7-5.9,5v28.7h15.6ZM354,170.6h-13.6v-71.5c0-9.8,5.4-14.8,16.3-14.8h10.2c10.9,0,16.3,4.9,16.3,14.8v71.5h-13.6v-31.6h-15.6v31.6h0Z"/>
      <g class="cls-16">
        <g class="cls-4">
          <g class="cls-23">
            <image class="cls-5" width="120" height="242" transform="translate(340.2 84.4) scale(.4)" xlink:href="Miraj Full Logo-4.png"/>
          </g>
        </g>
      </g>
      <path class="cls-11" d="M419.6,160.2h8.9c4.1,0,6.1-2.1,6.1-6.2v-69.5h13.6v71.7c0,9.7-5.2,14.5-15.7,14.5h-12.9v-10.4h0Z"/>
      <g class="cls-6">
        <g class="cls-3">
          <g class="cls-24">
            <image class="cls-5" width="82" height="242" transform="translate(419.4 84.6) scale(.4)" xlink:href="Miraj Full Logo-5.png"/>
          </g>
        </g>
      </g>
      <path class="cls-10" d="M256.4,219.5c5.4-1.6,16.6-12.5,21.5-16.2,1.3-1,1.6-1.5,2.8-2.6,8.8-8.4,17.8-19.4,20.4-33.8,1.9-10.6-3.5-6.4-11.5-20.3-2.8-4.8-4.8-9.2-6.2-15.3-1-4.3-2.2-16.4-.3-20,1.4,1.2,3.3,5.9,5.9,8.2,2.7,2.4,6.8,2.5,10.9,3.5,13.9,3.1,12.3,12.5,14.3,14.4,2,1.1,13.6,3,16.3,2.6,4.2-6.2,6.6-5.5.9-15.8-4.1-7.4-13.4-23.3-16.6-30-.9-1.9-3.1-6.3-2.6-8.7.5-2.5,3.1-5.2,4-8l-6.1,1.6,2.8-8.9c-11,.5-11,7.1-17,7.6-16.2,1.3-23.3,1.3-37.9,10.9-4,2.6-11.4,8.2-13.1,11.7,1,1.1,4.4,3.6,6.2,4.2,1.7-1.3,4.5-4,6-5.5,5.3-5.3,15.5-10.8,23.4-11.9-1.7,2-9,4.2-14.2,9.3-3.2,3.2-6.9,7.4-8.4,11.8-1,3.1,1,3.4,4.2,7.2,9.8,11.3,23.5,33.5,17.1,53.1-2.8-21.8-5.8-33.9-19-47.9-5.6-6-4.1-4.8-11.5-11.2-5.4-4.7-11-8.8-17.1-13.1-19.9-14.1-32.4-23.5-47.9-41.8-6.1-7.2-7.5-10.4-12.2-17.6-1,5.9,2.1,27.1,4,32.7,1.5,4.7,4.4,8.4,6.6,12.1,8,13.1,17.3,16.1,33,23,23,10.1,50,28.2,55.6,56,5.7,28.1-13.6,55.4-14.4,58.8"/>
      <g class="cls-22">
        <g class="cls-20">
          <g class="cls-1">
            <image class="cls-5" width="468" height="509" transform="translate(170.5 37.3) scale(.4)" xlink:href="Miraj Full Logo-6.png"/>
          </g>
        </g>
      </g>
      <path class="cls-9" d="M256.4,219.5c5.4-1.6,16.6-12.5,21.5-16.2,1.3-1,1.6-1.5,2.8-2.6,8.8-8.4,17.8-19.4,20.4-33.8,1.9-10.6-3.5-6.4-11.5-20.3-2.8-4.8-4.8-9.2-6.2-15.3-1-4.3-2.2-16.4-.3-20,1.4,1.2,3.3,5.9,5.9,8.2,2.7,2.4,6.8,2.5,10.9,3.5,13.9,3.1,12.3,12.5,14.3,14.4,2,1.1,13.6,3,16.3,2.6,4.2-6.2,6.6-5.5.9-15.8-4.1-7.4-13.4-23.3-16.6-30-.9-1.9-3.1-6.3-2.6-8.7.5-2.5,3.1-5.2,4-8l-6.1,1.6,2.8-8.9c-11,.5-11,7.1-17,7.6-16.2,1.3-23.3,1.3-37.9,10.9-4,2.6-11.4,8.2-13.1,11.7,1,1.1,4.4,3.6,6.2,4.2,1.7-1.3,4.5-4,6-5.5,5.3-5.3,15.5-10.8,23.4-11.9-1.7,2-9,4.2-14.2,9.3-3.2,3.2-6.9,7.4-8.4,11.8-1,3.1,1,3.4,4.2,7.2,9.8,11.3,23.5,33.5,17.1,53.1-2.8-21.8-5.8-33.9-19-47.9-5.6-6-4.1-4.8-11.5-11.2-5.4-4.7-11-8.8-17.1-13.1-19.9-14.1-32.4-23.5-47.9-41.8-6.1-7.2-7.5-10.4-12.2-17.6-1,5.9,2.1,27.1,4,32.7,1.5,4.7,4.4,8.4,6.6,12.1,8,13.1,17.3,16.1,33,23,23,10.1,50,28.2,55.6,56,5.7,28.1-13.6,55.4-14.4,58.8h0Z"/>
    </g>
  </g>
  <g class="cls-13">
    <g class="cls-17">
      <g class="cls-27">
        <image class="cls-5" width="465" height="509" transform="translate(-286.6 544.9) scale(.4)" xlink:href="Miraj Full Logo-7.png"/>
      </g>
    </g>
  </g>
</svg>